<svg width="32" height="32" viewBox="0 0 32 32" fill="none" xmlns="http://www.w3.org/2000/svg">
<path d="M0.0815044 14.4035C0.964039 5.6111 8.80764 -0.801341 17.6 0.0811992C21.5003 0.472797 24.9326 2.23467 27.4671 4.84097C30.6456 8.10979 32.4122 12.7081 31.9212 17.5998C31.0522 26.2546 23.4391 32.6029 14.8148 31.9572L14.4037 31.9211C10.2884 31.508 6.12655 28.9053 3.55805 26.0588C1.08267 22.9963 -0.270765 19.0245 0.0453717 14.8117L0.0815044 14.4035ZM8.2299 26.2297C10.1925 27.6577 12.5236 28.7179 14.7035 28.9367C20.821 29.5506 26.3712 25.8174 28.2904 20.2463L8.2299 26.2297ZM17.3002 3.06656C10.1564 2.34949 3.7839 7.55948 3.06684 14.7033C2.72851 18.0746 3.70906 21.2677 5.59222 23.7844C11.2807 21.5935 20.3598 16.4102 25.0501 6.67008C23.0187 4.69689 20.3382 3.37156 17.3002 3.06656ZM27.1068 9.24332C24.6203 13.8817 21.242 17.497 17.7484 20.2609L28.9681 16.9142C29.166 14.1275 28.4673 11.4743 27.1068 9.24332Z" fill="black"/>
</svg>
